<?xml version="1.0" standalone="no"?>
<!DOCTYPE svg PUBLIC "-//W3C//DTD SVG 20010904//EN"
 "http://www.w3.org/TR/2001/REC-SVG-20010904/DTD/svg10.dtd">
<svg version="1.0" xmlns="http://www.w3.org/2000/svg"
 width="301.000000pt" height="301.000000pt" viewBox="0 0 301.000000 301.000000"
 preserveAspectRatio="xMidYMid meet">
<metadata>
Created by potrace 1.11, written by Peter Selinger 2001-2013
</metadata>
<g transform="translate(0.000000,301.000000) scale(0.100000,-0.100000)"
fill="#000000" stroke="none">
<path d="M1510 3002 c0 -4 -10 -9 -22 -10 -24 -1 -57 -7 -98 -17 -31 -8 -71
-16 -87 -19 -7 -1 -16 -5 -19 -9 -4 -4 -15 -7 -25 -7 -10 0 -24 -6 -31 -12
-14 -13 -33 -20 -55 -21 -7 0 -13 -4 -13 -9 0 -5 -4 -7 -9 -3 -5 3 -12 1 -16
-5 -4 -6 -11 -8 -16 -5 -5 4 -9 2 -9 -3 0 -9 -37 -25 -52 -23 -5 1 -8 -3 -8
-9 0 -5 -7 -10 -15 -10 -8 0 -15 -4 -15 -10 0 -5 -5 -10 -11 -10 -6 0 -23 -9
-39 -20 -15 -11 -31 -16 -35 -12 -5 4 -6 2 -2 -4 3 -5 -10 -18 -29 -29 -19
-10 -34 -22 -34 -27 0 -4 -7 -8 -15 -8 -9 0 -18 -7 -21 -15 -3 -8 -15 -17 -26
-21 -11 -3 -17 -8 -14 -11 7 -7 -17 -32 -26 -26 -5 2 -8 -4 -8 -13 0 -10 -3
-14 -7 -11 -3 4 -11 -3 -18 -16 -6 -12 -17 -21 -23 -20 -7 2 -12 -3 -12 -11 0
-8 -5 -18 -12 -22 -7 -5 -8 -3 -3 6 5 9 4 11 -3 6 -7 -4 -12 -14 -12 -22 0 -8
-4 -14 -10 -14 -5 0 -10 -6 -10 -13 0 -7 -9 -18 -21 -25 -12 -7 -18 -16 -15
-19 5 -6 -84 -93 -96 -93 -4 0 -14 -8 -24 -17 -9 -10 -31 -28 -48 -41 -17 -13
-29 -24 -26 -26 3 -1 -2 -10 -11 -19 -9 -9 -19 -13 -23 -10 -3 4 -6 0 -6 -8 0
-17 -36 -50 -44 -42 -3 4 -6 0 -6 -7 0 -7 -11 -23 -24 -35 -14 -13 -23 -25
-20 -27 2 -3 -7 -17 -21 -32 -13 -14 -36 -47 -51 -71 -14 -25 -31 -45 -37 -45
-6 0 -7 -3 -4 -6 3 -4 -6 -27 -21 -53 -15 -25 -27 -48 -27 -51 0 -3 -3 -4 -7
-3 -4 2 -5 -3 -2 -11 3 -7 -4 -30 -15 -50 -11 -20 -18 -36 -15 -36 4 0 1 -7
-6 -15 -7 -8 -9 -15 -5 -15 4 0 2 -7 -5 -15 -7 -8 -9 -15 -5 -15 4 0 2 -7 -5
-15 -7 -8 -10 -15 -6 -15 3 0 1 -12 -5 -27 -7 -16 -13 -39 -14 -53 -2 -14 -4
-26 -5 -27 -19 -22 -35 -433 -17 -433 4 0 7 -6 5 -13 -3 -16 12 -109 20 -122
4 -5 7 -14 8 -20 11 -57 16 -75 30 -110 9 -22 20 -48 25 -57 5 -10 9 -25 9
-34 0 -8 7 -22 15 -31 8 -8 13 -19 10 -24 -4 -5 -1 -9 5 -9 6 0 9 -4 6 -9 -3
-5 1 -14 9 -21 8 -7 15 -19 15 -27 0 -8 12 -26 27 -40 16 -15 21 -23 13 -18
-11 6 -10 3 2 -12 10 -11 18 -25 18 -32 0 -7 5 -9 10 -6 6 3 10 0 10 -8 0 -7
9 -23 19 -34 11 -12 29 -38 40 -59 12 -21 21 -32 21 -24 0 7 11 0 23 -18 13
-17 27 -29 30 -25 4 3 7 1 7 -6 0 -16 26 -42 34 -34 3 4 6 -2 6 -12 0 -10 3
-16 6 -12 3 3 14 -2 24 -11 10 -10 39 -37 66 -62 27 -25 42 -36 34 -25 -14 18
5 6 67 -45 7 -6 19 -10 28 -10 8 0 15 -5 15 -11 0 -5 4 -7 10 -4 5 3 10 2 10
-2 0 -10 80 -49 93 -45 4 1 7 -3 7 -9 0 -5 5 -7 10 -4 5 3 10 2 10 -3 0 -9 79
-39 93 -34 4 1 7 -2 7 -8 0 -6 3 -9 8 -8 4 1 25 -4 47 -10 56 -16 96 -24 123
-26 12 0 22 -3 22 -6 0 -7 92 -11 225 -11 104 0 210 6 210 11 0 1 11 4 25 5
25 3 63 12 68 15 1 2 7 4 12 5 6 1 13 4 18 5 4 1 10 2 15 1 4 -1 35 10 69 24
34 14 67 25 75 25 7 0 13 5 13 11 0 5 5 7 10 4 6 -3 10 -1 10 4 0 6 3 10 8 9
10 -2 66 25 74 37 4 5 8 6 8 1 0 -5 9 -1 20 9 11 10 20 14 20 10 0 -4 9 0 20
10 11 10 20 14 20 10 0 -5 9 1 20 12 10 12 29 24 40 28 11 4 18 11 15 16 -4 5
0 9 8 9 8 0 18 7 21 16 3 8 10 12 16 9 5 -3 10 1 10 9 0 9 6 16 13 16 7 0 19
9 27 19 7 11 16 18 19 17 3 -2 15 6 26 17 11 11 13 16 5 12 -8 -5 -4 3 10 16
14 14 27 24 29 23 5 -4 81 86 81 97 0 6 5 7 10 4 6 -3 10 2 10 12 0 10 16 32
36 48 20 17 43 36 50 43 8 7 14 10 14 5 0 -4 5 0 11 10 5 9 17 17 25 17 8 0
14 3 12 8 -2 4 16 26 39 48 24 23 43 39 43 36 0 -3 6 3 14 13 8 11 12 23 10
27 -3 4 3 5 12 1 12 -4 15 -3 10 5 -4 7 -1 12 9 12 9 0 13 5 10 10 -3 6 -1 10
4 10 6 0 11 5 11 10 0 6 14 24 30 40 17 17 28 35 25 40 -3 5 4 14 15 20 11 6
18 15 15 21 -4 5 -2 9 3 9 5 0 12 8 16 17 3 10 17 37 30 60 13 23 21 44 18 47
-3 4 -1 6 5 6 9 0 28 37 37 70 1 3 7 15 14 27 7 13 10 23 6 23 -3 0 -2 6 3 12
6 7 14 27 18 43 5 17 10 37 12 45 3 8 5 26 7 40 1 14 5 30 9 36 3 6 13 53 22
105 17 107 20 250 5 330 -20 114 -21 124 -22 139 0 8 -5 21 -11 28 -5 6 -6 12
-1 12 5 0 2 5 -6 10 -13 9 -13 10 0 10 11 0 12 2 3 8 -7 5 -14 21 -16 38 -2
16 -9 39 -15 50 -6 12 -8 24 -5 28 3 3 1 6 -5 6 -7 0 -12 8 -12 18 0 9 -9 30
-19 46 -11 17 -18 33 -15 38 3 4 0 8 -5 8 -6 0 -11 9 -11 19 0 11 -4 21 -9 23
-5 2 -11 9 -13 17 -2 8 -10 23 -18 33 -8 10 -15 22 -14 26 0 4 -4 12 -10 19
-28 32 -36 43 -36 51 0 4 -13 21 -30 37 -16 15 -28 31 -26 34 6 9 -21 31 -28
24 -3 -4 -6 -1 -6 5 0 17 -131 148 -168 166 -18 10 -36 24 -39 31 -3 8 -9 12
-14 9 -5 -3 -9 0 -9 7 0 7 -3 10 -6 6 -6 -5 -15 0 -49 31 -7 6 -21 12 -30 12
-9 0 -13 5 -10 10 3 6 -3 10 -14 10 -12 0 -21 5 -21 10 0 6 -4 10 -10 10 -5 0
-33 11 -62 24 -29 13 -57 25 -63 26 -5 1 -25 10 -42 22 -24 14 -33 16 -33 6 0
-10 -2 -10 -8 -1 -4 7 -17 14 -27 16 -11 2 -40 10 -65 17 -25 7 -57 13 -72 13
-16 0 -28 3 -28 8 0 4 -9 6 -20 4 -11 -2 -22 0 -25 6 -7 11 -335 12 -335 1z
m370 -146 c91 -15 269 -72 282 -91 4 -5 8 -6 8 -1 0 5 9 1 20 -9 11 -10 20
-15 20 -11 0 3 18 -5 40 -19 22 -14 44 -25 50 -25 5 0 10 -4 10 -9 0 -5 13
-15 28 -22 16 -8 43 -25 61 -39 41 -31 203 -190 194 -190 -3 0 4 -8 15 -19 12
-10 22 -23 22 -30 0 -6 5 -11 10 -11 6 0 10 -7 10 -15 0 -8 4 -15 9 -15 10 0
23 -21 62 -100 12 -25 26 -48 31 -51 5 -3 10 -10 10 -15 1 -5 5 -22 11 -39 6
-16 9 -32 8 -34 -1 -2 2 -7 8 -11 11 -6 21 -38 23 -67 1 -7 4 -13 8 -13 4 0 7
-6 7 -12 0 -7 8 -51 18 -98 12 -60 17 -127 17 -230 -1 -160 -4 -189 -37 -320
-10 -38 -19 -67 -24 -75 -3 -5 -7 -19 -8 -30 -2 -11 -8 -21 -13 -23 -6 -2 -10
-12 -10 -22 0 -10 -4 -21 -9 -24 -5 -3 -12 -18 -16 -33 -3 -16 -17 -42 -30
-59 -13 -17 -21 -34 -18 -38 4 -3 1 -6 -6 -6 -7 0 -10 -4 -7 -9 3 -5 -1 -11
-9 -15 -8 -3 -15 -12 -15 -20 0 -7 -7 -16 -15 -20 -8 -3 -15 -15 -15 -26 0
-12 -4 -18 -10 -15 -5 3 -10 -1 -10 -9 0 -8 -5 -18 -12 -22 -7 -4 -8 -3 -4 4
4 7 2 12 -4 12 -7 0 -8 6 -1 18 9 17 13 30 27 102 15 76 17 111 18 275 0 185
-4 251 -18 273 -4 8 -6 16 -3 19 3 3 -2 26 -12 52 -11 25 -19 49 -20 53 -9 51
-15 69 -22 74 -5 3 -7 10 -4 15 4 5 1 9 -6 9 -7 0 -10 3 -6 6 3 4 -4 25 -15
48 -12 22 -21 44 -20 49 1 4 -3 7 -9 7 -6 0 -9 6 -6 13 3 8 -3 20 -13 27 -11
8 -17 17 -14 21 2 4 -2 13 -9 21 -7 7 -22 28 -32 46 -11 17 -23 32 -28 32 -4
0 -6 4 -3 9 3 5 -1 12 -10 15 -9 4 -14 9 -11 12 2 3 -6 17 -19 31 -13 14 -21
29 -18 34 3 5 0 9 -6 9 -6 0 -47 36 -90 80 -43 44 -83 80 -88 80 -6 0 -13 7
-16 16 -4 9 -9 14 -13 11 -3 -4 -13 2 -23 13 -9 10 -23 20 -30 22 -8 2 -25 13
-39 25 -14 12 -28 20 -32 18 -4 -3 -9 2 -13 10 -3 9 -12 12 -22 8 -10 -4 -15
-2 -11 3 6 11 -154 85 -174 80 -3 0 -13 5 -23 13 -9 8 -19 11 -22 8 -3 -3 -22
1 -42 10 -20 8 -44 17 -54 19 -45 10 -56 12 -108 20 -30 4 -57 8 -60 9 -3 0
-9 3 -15 6 -9 4 -250 4 -250 -1 0 -1 -17 -3 -37 -5 -20 -2 -63 -9 -95 -15 -32
-7 -65 -14 -73 -15 -8 -2 -16 -4 -17 -4 -11 -4 -17 1 -19 13 -1 9 6 18 17 21
10 4 19 11 19 16 0 6 5 7 10 4 6 -3 10 -1 10 5 0 6 4 9 9 5 6 -3 13 1 18 8 8
14 126 79 153 85 8 2 20 8 25 15 10 12 29 17 73 20 12 1 22 5 22 8 0 7 134 43
162 44 9 0 19 2 22 5 7 7 331 4 376 -4z m691 -203 c13 -16 12 -17 -3 -4 -17
13 -22 21 -14 21 2 0 10 -8 17 -17z"/>
</g>
</svg>
